# xmcd CD database file
#
# Track frame offsets:
#	150
#	18396
#	34906
#	49182
#	65146
#	85399
#	101636
#	120580
#	137961
#	163604
#	184122
#	203979
#	224872
#	244831
#	265819
#	288792
#	302244
#	322036
#	337158
#
# Disc length: 4784 seconds
#
# Revision: 1
# Processed by: cddbd v1.5.2PL0 Copyright (c) Steve Scherf et al.
# Submitted via: CDex 1.51
#
DISCID=3112ae13
DTITLE=Various Artist - ZM-DR-CD-2
DYEAR=1900
DGENRE=Blues
TTITLE0=Toto - Hold The Line
TTITLE1=Billy Idol - Hot In The City
TTITLE2=Joan Jett and The Blackhearts - I Love Rock 'n' Roll
TTITLE3=Genesis - Invisible Touch
TTITLE4=White Snake - Is This Love
TTITLE5=REO Speed Wagon - Keep On Loving You
TTITLE6=Bon Jovi - Livin' On A Prayer
TTITLE7=Electric Light Orchestra - Livin' Thing
TTITLE8=Aerosmith - Love In A Elevator
TTITLE9=Hall And Oates - Maneater
TTITLE10=Dire Straits - Money For Nothing
TTITLE11=Boston - More Than A Feeling
TTITLE12=Extreme - More Than Words
TTITLE13=Yes - Owner Of A lonely Heart
TTITLE14=Guns and Roses - Paradise City
TTITLE15=Black Sabbath - Paranoid
TTITLE16=Deacon Blue - Real Gone Kid
TTITLE17=Status Quo - Rockin' All Over The World
TTITLE18=Toto - Rosanna
EXTD=
EXTT0=
EXTT1=
EXTT2=
EXTT3=
EXTT4=
EXTT5=
EXTT6=
EXTT7=
EXTT8=
EXTT9=
EXTT10=
EXTT11=
EXTT12=
EXTT13=
EXTT14=
EXTT15=
EXTT16=
EXTT17=
EXTT18=
PLAYORDER=
